<svg xmlns="http://www.w3.org/2000/svg" xmlns:xlink="http://www.w3.org/1999/xlink" id="Layer_1" width="100%" x="0" y="0" enable-background="new 0 0 133 133" version="1.1" viewBox="0 0 133 133" xml:space="preserve"><path fill="#FFF" stroke="none" d="M76.000000,134.000000 C50.690025,134.000000 25.880051,134.000000 1.035038,134.000000 C1.035038,89.731750 1.035038,45.463463 1.035038,1.097589 C45.226379,1.097589 89.453049,1.097589 133.839859,1.097589 C133.839859,45.332870 133.839859,89.666382 133.839859,134.000000 C114.797241,134.000000 95.648621,134.000000 76.000000,134.000000 M108.095116,7.000358 C105.095253,7.000247 102.083786,7.167610 99.098236,6.960850 C94.598000,6.649193 92.906548,8.512697 92.936760,13.047582 C93.078903,34.379704 92.931831,55.713699 93.055954,77.046043 C93.081657,81.463493 93.822067,85.876785 94.292213,90.927216 C77.975182,64.697502 62.049004,39.340359 46.435028,13.792411 C43.276669,8.624627 39.760586,5.744905 33.516998,6.942482 C31.587992,7.312482 29.528053,6.993647 27.528107,7.001202 C21.511879,7.023932 21.004023,7.522248 21.002989,13.614552 C20.996916,49.447445 20.999985,85.280342 21.000090,121.113235 C21.000093,121.946556 20.661312,123.044861 21.065588,123.563820 C22.309561,125.160690 23.721712,127.630768 25.277313,127.796028 C30.339090,128.333771 35.493736,127.997314 40.500015,127.997314 C40.500015,99.187805 40.500015,70.847023 40.500015,41.502663 C43.601898,47.026558 46.039856,51.773544 48.844612,56.292892 C61.156685,76.131523 74.363777,95.469704 85.612373,115.889450 C91.010971,125.689613 97.006256,129.728226 107.732101,128.123032 C111.414742,127.571892 113.039124,126.421165 113.033394,122.643608 C112.977531,85.810806 112.987083,48.977886 113.024109,12.145040 C113.027016,9.249222 112.131836,7.320923 108.095116,7.000358 z" opacity="1"/><path fill="#00FF3C" stroke="none" d="M108.549118,7.001986 C112.131836,7.320923 113.027016,9.249222 113.024109,12.145040 C112.987083,48.977886 112.977531,85.810806 113.033394,122.643608 C113.039124,126.421165 111.414742,127.571892 107.732101,128.123032 C97.006256,129.728226 91.010971,125.689613 85.612373,115.889450 C74.363777,95.469704 61.156685,76.131523 48.844612,56.292892 C46.039856,51.773544 43.601898,47.026558 40.500015,41.502663 C40.500015,70.847023 40.500015,99.187805 40.500015,127.997314 C35.493736,127.997314 30.339090,128.333771 25.277313,127.796028 C23.721712,127.630768 22.309561,125.160690 21.065588,123.563820 C20.661312,123.044861 21.000093,121.946556 21.000090,121.113235 C20.999985,85.280342 20.996916,49.447445 21.002989,13.614552 C21.004023,7.522248 21.511879,7.023932 27.528107,7.001202 C29.528053,6.993647 31.587992,7.312482 33.516998,6.942482 C39.760586,5.744905 43.276669,8.624627 46.435028,13.792411 C62.049004,39.340359 77.975182,64.697502 94.292213,90.927216 C93.822067,85.876785 93.081657,81.463493 93.055954,77.046043 C92.931831,55.713699 93.078903,34.379704 92.936760,13.047582 C92.906548,8.512697 94.598000,6.649193 99.098236,6.960850 C102.083786,7.167610 105.095253,7.000247 108.549118,7.001986 z" opacity="1"/></svg>